<?xml version="1.0" standalone="no"?>
<!DOCTYPE svg PUBLIC "-//W3C//DTD SVG 20010904//EN"
 "http://www.w3.org/TR/2001/REC-SVG-20010904/DTD/svg10.dtd">
<svg version="1.0" xmlns="http://www.w3.org/2000/svg"
 width="256.000000pt" height="256.000000pt" viewBox="0 0 256.000000 256.000000"
 preserveAspectRatio="xMidYMid meet">
<metadata>
Created by potrace 1.15, written by Peter Selinger 2001-2017
</metadata>
<g transform="translate(0.000000,256.000000) scale(0.100000,-0.100000)"
fill="#000000" stroke="none">
<path d="M2549 1868 c-1 -343 0 -633 1 -645 1 -13 -1 -23 -3 -23 -3 0 -28 16
-57 35 -74 50 -106 48 -231 -17 -96 -51 -104 -53 -177 -53 -54 0 -87 5 -111
17 -42 22 -61 23 -61 3 0 -8 12 -17 28 -21 52 -11 83 -23 111 -43 18 -13 63
-25 124 -34 97 -15 172 -47 164 -71 -2 -7 -23 -10 -53 -8 -28 2 -79 -6 -119
-18 -117 -34 -186 -25 -266 32 -9 6 -24 8 -34 4 -16 -6 -17 -9 -4 -20 8 -7 32
-18 55 -24 93 -27 138 -77 179 -205 28 -85 67 -137 103 -137 24 0 95 123 139
241 35 94 57 186 69 287 6 58 8 62 24 47 9 -8 20 -15 25 -15 4 0 23 -11 41
-25 18 -14 37 -25 43 -25 8 0 11 -173 11 -570 l0 -570 -1270 0 -1270 0 0 617
0 616 37 -40 c38 -40 102 -81 104 -66 1 5 9 -31 19 -79 23 -106 73 -241 123
-330 55 -99 84 -91 121 32 42 135 109 209 213 231 66 14 82 24 66 40 -8 8 -26
4 -67 -16 -50 -25 -65 -27 -130 -23 -62 4 -85 11 -152 47 -63 34 -84 41 -111
36 -37 -7 -45 11 -17 39 24 25 58 29 129 17 68 -12 117 -8 172 16 18 7 49 13
70 13 44 0 73 14 58 28 -9 9 -166 3 -387 -14 -71 -6 -80 -4 -127 22 -56 30
-97 77 -117 133 -11 30 -13 -79 -14 -646 l0 -683 1280 0 1280 0 0 1245 c0 685
-2 1245 -5 1245 -3 0 -5 -280 -6 -622z"/>
<path d="M1343 2438 c-32 -35 -53 -83 -53 -120 0 -23 16 -59 50 -113 28 -44
55 -98 61 -120 14 -50 5 -119 -22 -163 -13 -23 -17 -38 -10 -45 15 -15 28 -1
35 37 4 18 20 53 37 76 23 31 34 61 43 119 14 91 44 156 72 156 17 0 19 -6 16
-50 -2 -32 4 -72 17 -109 36 -101 25 -182 -32 -244 -15 -16 -18 -25 -10 -33
17 -17 43 -3 43 21 0 34 37 96 76 128 20 17 69 40 108 52 137 42 157 51 177
84 10 17 19 38 19 48 0 21 -140 111 -244 156 -73 32 -223 73 -320 88 -26 4
-35 8 -26 14 13 8 7 40 -8 40 -5 0 -18 -10 -29 -22z"/>
<path d="M1145 2404 c-182 -29 -333 -83 -463 -167 l-71 -46 3 27 c2 17 1 19
-2 7 -4 -14 -8 -6 -13 25 l-6 45 -1 -45 c-1 -25 7 -63 17 -86 19 -41 22 -43
129 -78 61 -21 129 -50 151 -66 45 -33 79 -91 89 -153 5 -28 13 -43 25 -45 24
-5 21 19 -8 74 -44 82 -32 171 36 273 33 50 39 66 34 91 -8 36 14 41 45 10 23
-23 24 -39 9 -127 -10 -59 -9 -70 14 -136 15 -40 27 -85 29 -102 2 -19 9 -30
18 -30 10 0 14 8 12 25 -2 14 -4 70 -6 125 -1 55 -8 129 -15 165 -19 98 1 171
59 217 8 7 13 12 10 12 -3 -1 -45 -8 -95 -15z"/>
<path d="M500 2140 c-2 -14 -4 -31 -4 -37 -1 -7 -23 -34 -49 -61 -26 -26 -47
-50 -47 -54 0 -3 17 -9 37 -13 56 -10 89 -31 168 -104 40 -36 87 -75 106 -86
18 -11 44 -36 57 -55 13 -19 31 -35 39 -35 32 0 23 24 -20 54 -24 18 -54 51
-68 74 -13 23 -55 71 -92 106 -83 79 -107 117 -117 184 -4 31 -9 42 -10 27z"/>
<path d="M2020 2089 c0 -56 -23 -92 -117 -187 -38 -38 -78 -82 -90 -99 -12
-17 -38 -38 -58 -47 -19 -9 -35 -23 -35 -31 0 -31 22 -23 69 24 28 28 70 60
93 72 24 12 75 52 114 89 40 37 88 73 108 80 20 6 36 15 36 19 0 3 -27 33 -60
66 l-60 59 0 -45z"/>
<path d="M310 1946 c-14 -18 -9 -62 7 -59 6 1 -9 -31 -32 -73 -71 -124 -135
-352 -135 -480 0 -40 2 -44 25 -44 14 0 72 23 128 52 118 60 182 71 257 43 74
-27 90 -29 90 -11 0 10 -9 16 -24 16 -14 0 -55 16 -93 36 -47 24 -90 38 -140
44 -105 14 -178 46 -166 76 4 11 16 13 52 8 34 -4 67 0 119 16 97 29 174 25
232 -14 40 -26 75 -32 73 -11 -2 13 -17 20 -71 35 -82 21 -128 79 -172 215
-27 82 -50 111 -102 127 -25 7 -37 16 -34 25 7 17 1 17 -14 -1z"/>
<path d="M2346 1938 c5 -16 -1 -18 -52 -18 -87 0 -116 -22 -144 -107 -55 -165
-110 -225 -229 -248 -39 -8 -57 -17 -59 -28 -5 -23 19 -21 70 6 34 17 60 22
120 22 72 0 82 -3 166 -46 68 -35 93 -44 107 -37 25 14 40 -4 26 -31 -16 -29
-52 -35 -137 -23 -79 11 -84 10 -183 -19 -35 -10 -76 -19 -92 -19 -18 0 -29
-5 -29 -14 0 -12 22 -14 133 -10 72 3 159 10 191 15 33 6 84 9 115 7 l56 -3
-3 35 c-10 108 -68 290 -127 395 l-33 60 61 0 c54 0 62 2 65 20 1 11 -4 29
-13 40 -12 16 -14 17 -9 3z"/>
<path d="M1735 859 c-4 -6 18 -33 49 -61 31 -28 65 -67 76 -87 10 -21 44 -59
76 -86 75 -64 114 -126 114 -181 0 -67 -42 -164 -72 -164 -4 0 -8 16 -8 35 0
19 -7 52 -16 74 -17 43 -40 58 -139 86 -148 42 -235 125 -235 224 0 16 -6 31
-14 34 -32 12 -35 -22 -5 -62 25 -34 35 -121 20 -177 -6 -22 -29 -69 -51 -103
-41 -63 -48 -85 -30 -96 15 -9 2 -25 -20 -25 -11 0 -27 12 -37 26 -15 23 -15
35 -5 106 11 74 10 84 -13 151 -13 40 -25 86 -27 102 -2 19 -9 30 -18 30 -10
0 -14 -8 -12 -25 2 -14 5 -70 6 -125 1 -55 8 -127 15 -159 16 -73 8 -139 -22
-183 -31 -47 -121 -107 -160 -108 -27 0 -32 -4 -35 -25 -2 -21 2 -26 23 -28
14 -1 45 8 68 19 52 27 120 86 104 92 -7 2 15 7 48 11 155 20 364 96 479 175
l46 32 0 -50 c0 -65 7 -81 36 -81 50 0 102 104 91 185 -6 38 -3 46 28 79 30
33 41 38 84 41 28 1 57 8 66 15 17 14 19 48 5 70 -8 13 -10 13 -10 -1 0 -20
-12 -25 -73 -34 -62 -10 -126 20 -202 94 -33 33 -74 66 -91 74 -26 14 -53 40
-105 105 -12 15 -26 16 -34 1z"/>
<path d="M771 810 c-18 -22 -56 -52 -84 -66 -29 -15 -84 -57 -123 -94 -41 -39
-88 -73 -109 -80 -78 -26 -226 7 -241 53 -5 16 -8 17 -15 6 -35 -55 37 -109
157 -117 54 -3 74 -1 74 7 0 7 22 -9 49 -36 27 -26 45 -50 40 -53 -11 -8 7
-81 23 -91 33 -21 65 -8 59 24 -2 10 7 5 64 -33 64 -44 175 -96 261 -124 85
-28 231 -58 267 -56 39 4 41 0 16 -27 -24 -28 -24 -28 0 -8 32 27 61 88 61
127 0 22 -13 52 -36 87 -88 130 -104 209 -59 297 14 28 21 52 16 57 -15 15
-28 0 -35 -37 -4 -18 -20 -53 -37 -76 -23 -32 -33 -62 -44 -126 -15 -92 -47
-157 -74 -152 -13 3 -15 14 -13 53 2 32 -5 72 -17 109 -36 101 -25 182 32 244
15 16 18 25 10 33 -20 20 -40 2 -47 -42 -5 -33 -18 -54 -54 -90 -40 -40 -60
-51 -137 -74 -139 -41 -154 -49 -176 -100 -11 -25 -24 -45 -29 -45 -30 0 -42
128 -15 167 8 11 46 51 85 89 39 37 80 83 91 101 12 18 41 45 65 59 45 27 58
54 26 54 -10 0 -33 -18 -51 -40z"/>
</g>
</svg>
